<svg xmlns="http://www.w3.org/2000/svg" viewBox="0 0 2535.36 14.18"><defs><style>.cls-1{fill:none;fill-rule:evenodd;}</style></defs><g id="Layer_2" data-name="Layer 2"><g id="Layer_1-2" data-name="Layer 1"><path class="cls-1" d="M0,14.18s2-.76,10.32-.24,39.42-1.14,48.24-2.4c1.17-.17,3,.59,5,.48s28-1,30.48-.72,4.61,1,6.48,1,5.23-.91,6.72-1,15.83-.07,18-.24,7.53-1.23,9.12-1.44,8,.12,10.08-.48,16.52-1.21,17-1.2S185.71,6.1,187.2,6s16.61-1.75,18-1.92a27.83,27.83,0,0,1,4.8-.24c1.34.12,4.75.22,5.52.24s11.4-.43,12.48-1,13-1.23,13.44-1.2,22.21.24,24.24.24,15.6-.27,16.32-.24,18.13.63,19.68.72,5.45,0,6.48,0,10.72.39,11.76.48,9.84,1,11,1.44S343.26,6,344.64,6s7.41.3,9.36.48,7,.53,8.64.72,7.41.29,8.4.24S376.31,7,377,7s5.71-.67,7.2-.72,7.87-.52,9.12-.48,18.55-.57,19.44-.72,23.47-.08,23.76,0,5.52.22,6,.24S449,4.87,450,4.82s12.84.78,14.64.72,9.45-.72,10.56-.72,10.08-.94,16.08,0a73.86,73.86,0,0,0,11.52,1c1.3,0,3.06-.45,4.08-.48s5.18.48,7.2.72,4.18.63,5.76.72,5.32-.25,8.4-.48,15,.31,16.8.48,2.33-.39,4.32-.48a46.2,46.2,0,0,1,5.52.48c.56,0,.56-.26,1.2-.24s5-.41,6.24,0,1.2.24,1.2.24a11.38,11.38,0,0,0,1.68,0c.88-.07,8.88-.24,8.88-.24L590.64,6l9.12-.48,2.64.24,1.92-1.2h17.76l1,.72H634.8l25.44-.24,7-.48,7.2-.48,9.84.24,6.24-.24,14.64-.48,13.68-1,8.4.72,8.4.24,5-.48h6.24l5.52.48h4.32l5-.24,13.68-1,15.84-.24,7.44.72h7.68l10.8.72,13.68.48,11-.48,6.24-.72,6.48-.24,7.44-.48,2.88.24a5.62,5.62,0,0,0,1.2.48,16.87,16.87,0,0,1,1.68.24l6.24-.24,2.4-.72,8.16.72,4.32.24s5.29.7,5.28.72,3.36.24,3.36.24h2.16l.72-.24,2.64-.48L905,2.9l1.44-.48s2.1-.17,2.16-.24,2.4-.24,2.4-.24l2.4.24a18.49,18.49,0,0,1,2.16.24c.13.1,8.32.15,8.4.24s8.4,0,8.4,0L937,2.42l4.56.48,4.08.48a17.44,17.44,0,0,0,2.64.48c.11-.12,4.32.48,4.32.48l3.12.48,3.12.48,2.88.24,2.4.24s4.5-.43,4.56-.48,2.64,0,2.64,0l2.88-.24s2.09-.3,2.16-.24,5.28.24,5.28.24l10.56-.48L998.4,2.9l2.16.48,4.08.24,1.44-.48H1009l2.4.72,1.92-.48,1.44-.48,1.92-.24,1.92-.24h1.68l1.68.24,1,.48h.72l1.68-.24,1.44-.48,2.4.24h3.36l3.6-.24,3.36-.24,2.64-.24,2.88.24,2.16.48,2.64.48,2.4.72H1055l6.48-.72,3.6.24h3.12l3.12-.24,2.4-.24h2.64l3.12-.48h2.4l7.44-1h4.8l4.56-.24,3.36-.48,3.36-.24h4.32l8.88.72h6l4.8-.24,17.28-.24,6.48.48s5.51-.59,5.52-.48S1162.8.5,1162.8.5h4.08s5.4-.62,5.52-.48,6.48.24,6.48.24l5-.24h5.52l6.48.72,4.8-.24,2.16.24h3.6L1211,1l2.4.48,1.92.72L1217,1.7l3.12-.24,5.28-.24h7l6.48.24,8.64-.24,5.28.24,3.6.72,1.92.24,2.64-.24,1.2-.48,2.4-.24,3.12.24s5.59.21,5.76.24,5.76-.24,5.76-.24h5.28l2.88.24h4.56l1.92-.24h7l3.6.72h2.88s4.55.1,4.56,0,3.84,0,3.84,0l3.36.48s15.23.39,17,.72,9.84.24,9.84.24l8.16,1,5.52.48,4.08-.24,7.92-.48,17.52-1,5.28-.24,6,.24h11.52l4.08.48h9.12l4.08-.48,3.36-.72h2.4l6.24-1,2.88.48,4.8.48,3.6.24,6.24.24h4.56l6-.24,7-1h2.64l4.08.72s3.68.19,3.84.24,7.92.72,7.92.72l6.24.24,6.72.48,2.16-.48,3.36-.48,3.6-.48,2.88.24,3.36.72,3.84.24h5.52l1.68-.48,1.2-.48,1.92.24,3.6-.24h4.08l4.56-.72s2,0,2.16,0,3.46.29,3.6.24,3.28.31,3.36.24,3.12.48,3.12.48l4.56.24,3.84.48,5.76.48h3.84l4.56.72,5.28.72,2.64.24,1.44-.24,6-1.44,3.6-.72,3.6-.24,2.88-.48,3.36-.24,3.36-.48,3.12-.24,3.36-.24H1627a21.08,21.08,0,0,1,2.64,0c.19.11,2.4.48,2.4.48h2.16l2.4-.48,5-.72,3.6.24c.4,0,3.81.3,3.84.24s6.24.24,6.24.24l5,.48s4.83.18,5,.24,7.2-.48,7.2-.48l5.52-.48a14.59,14.59,0,0,0,1.68-.24C1680,1.6,1686,1,1686,1l5,.24s2,.46,2.16.48,2.4,0,2.4,0,4.2.16,4.32.24,4.27.79,4.32.72,3.84-.24,3.84-.24l4.56-.72,5.76-.24,10.8-.24s5-.09,5.28,0,3.6.24,3.6.24l3.6.24,3.6-.24,3.36.24,3.36.24,11,.24h5.76l2.88-.48s2.19-.22,2.64-.24,3.12-.24,3.12-.24h5l4.8-.24s14.46-.46,14.64-.48,4.8.48,4.8.48h3.36c.36,0,4.32,0,4.56,0s2.64-.24,2.64-.24,2.23.16,2.4.24,4.8.24,4.8.24,4.57.14,4.8.24,3.41.15,3.6.24,3.84.16,4.32.24,3.18,0,3.84,0,2.72-.47,3.12-.48h3.12l17.28-.24s10.08.28,10.08.24,6.72.24,6.72.24h18.24L1925,1.46l15.36.24s7.44.78,7.44.72,9.84,0,9.84,0,4.84.22,5,.24,6.72.24,6.72.24l2.4.24,12.24.48,4.8-.24s4.34-.74,4.8-.72,3.84-.72,3.84-.72h9.84l2.64.48,2.64.24L2040,3.86s3.16-.52,3.36-.48,2.88-.48,2.88-.48a24,24,0,0,0,2.4,0c.11-.08,5.76-.48,5.76-.48h4.8l7.2.72,5,.72,5-.24,4.8.48,6.24-.24,5.28.24,5.76,1,4.32,1,5.28-.24,7.92-1s2.36.28,2.4.24,2.65.11,2.88,0,2.4-.72,2.4-.72a5.85,5.85,0,0,1,1.68-.48c.41.06,3.84,0,3.84,0s3.87-.06,4.08,0,2-.86,3.12-.72,7.2,0,7.44,0l4.32-.48s3-.32,3.12-.24a92.53,92.53,0,0,0,9.36,1.2,55.89,55.89,0,0,0,7.44-.48l4.32-.48s1.43-.38,2.16-.48,4.4-.3,4.56-.24,4.67.13,5,.24,3.7.29,5.52.48a62.14,62.14,0,0,0,7.2,0,22.76,22.76,0,0,1,3.84-.24c.86.1,6.24,0,6.24,0l4.08.24,5,.24h4.08l7,.48h6.48s6.94-.31,7-.24,5.76,0,5.76,0l3.36-.24,10.56.48s2.61.28,3.12.24l7.92-.48h6.48l7.2.48,26.4.72,10.56.48,28.08-2.4,5-1.44,4.8-.72h7s4.4.83,4.56.72,4.85.43,5,.48,4.8.72,4.8.72l5,.72,3.84.48h19.2s4.15-.45,4.32-.48,4.56-.24,4.56-.24l4.8.48,5.28.48s5.5-.34,5.76-.24,4.56-.48,4.56-.48h15.6s5.17.58,5.28.48,13.2-.48,13.2-.48l2.4-.24,14.16.24h9.6s6.92.53,7,.48,3.61.55,3.84.48,6,.33,6.72.24,6.72.24,6.72.24l6,.48a22.14,22.14,0,0,0,2.64.72c.28,0,3.6,0,3.6,0"/></g></g></svg>